<?xml version="1.0" encoding="utf-8"?>
<!-- Generator: Adobe Illustrator 28.0.0, SVG Export Plug-In . SVG Version: 6.00 Build 0)  -->
<svg version="1.1" id="Calque_1" xmlns="http://www.w3.org/2000/svg" xmlns:xlink="http://www.w3.org/1999/xlink" x="0px" y="0px"
	 viewBox="0 0 1024 1024" style="enable-background:new 0 0 1024 1024;" xml:space="preserve">
<style type="text/css">
	.st0{fill:#8C2627;}
	.st1{fill:#5F1315;}
	.st2{fill:#CBC9C9;}
	.st3{fill:#431A10;}
	.st4{fill:#1F1511;}
	.st5{fill:#DEA61C;}
	.st6{fill:#BB7014;}
	.st7{fill:#9E5316;}
</style>
<g>
	<path class="st0" d="M670.51,333.8c1.27,0.1,2.83,3.04,4.07-0.34c-0.08,1.9-0.08,1.9-0.16,3.79c4.78,3.24,9.49,5.04,14.9,6.96
		c2.28,0.81,6.24,4.8,8.74,2.9c24.28-43.79,49.36-87.69,77.87-128.92c15.63-22.59,45.38-64.15,32.99-31.53
		c-9.42,24.79-44.34,90.02-59.58,121.59c-17.31,35.86-38.85,98.73-64.58,125.94c-25.87,27.36-66.66,27.58-93.36,51.78
		c-41.64,37.75-127.84,217.24-151.1,279.82c1.09,30.41-16.77,73.49-33.78,98.36c-6.74,9.85-11.98,16.62-21.29,24.43
		c-9.45,7.92-29.56,19.17-42.29,17.97c13.93-41.09,30.31-81.73,49.91-120.48c45.27-89.5,137.86-215.88,158.44-297.75
		c17.73-70.53-27.53-108.19,21.35-188.04c19.32-30.5,97.43-149.35,112.99-168.98c3.45-4.35,7.32-9.26,11.19-13.2
		c3.2,1.24,4.79-5.57,6.21-3.03c0.24,0.43-2.62,7.87-3.18,9.24c-21.2,52.36-61.65,124.73-89.46,175.54c-4.23-1.7-4.23-1.7-8.47-3.4
		c15.32,8.47,29.94,18.5,45.21,26.98c0.76,0.42,9.96,2.97,11,3.5c0.61,0.31,2.03,5.76,10.78,8.56
		C669.86,335.81,670.37,333.79,670.51,333.8z"/>
	<path class="st1" d="M342.93,906.56c-8.48-0.8-11.33-1.64-17.93-7.34c-17.8-15.39-9.66-62.74-1.37-81.61
		c9.32-21.21,40.42-64.36,61.9-74.38c5.07-6.74,9.93-14.18,15.31-20.63c42.42-50.86,86.79-122.75,116.33-182.01
		c48.06-96.39,26.81-93.33,24.09-150.95c-2.07-43.88,9.28-54.48,31.37-89.35c-48.88,79.85-3.62,117.51-21.35,188.04
		c-20.58,81.87-113.17,208.25-158.44,297.75C373.24,824.84,356.86,865.47,342.93,906.56z"/>
	<path class="st2" d="M325.01,899.22c6.59,5.7,9.45,6.54,17.93,7.34c12.73,1.2,32.85-10.05,42.29-17.97
		c-6.35,13.65-39,28.18-53.12,22.33C327.99,909.21,318.14,903.77,325.01,899.22z"/>
	<path class="st0" d="M670.51,333.8c-0.14-0.01-0.65,2.01-1.59,1.71c-8.76-2.8-10.17-8.25-10.78-8.56c-1.04-0.53-10.24-3.08-11-3.5
		c-15.28-8.48-29.89-18.51-45.21-26.98c4.23,1.7,4.23,1.7,8.47,3.4c27.81-50.81,68.27-123.19,89.46-175.54
		c0.55-1.37,3.41-8.81,3.18-9.24c-1.42-2.53-3.01,4.27-6.21,3.03c1.2-1.22,8.6-11.18,9.5-3.15c0.63,5.58-41.42,90.19-47.35,101.84
		c-6.07,11.92-45.63,78.42-46.06,83.16c-0.3,3.33,7.42,5.51,9.57,7.24c29.54-40.84,66.46-123.4,92.12-160.49
		c1.72-2.49,22.1-27.62,21.41-15.31c-0.58,10.4-88.27,160.08-98.91,183.25c5.56,3.4,5.56,3.4,11.11,6.8
		c24.21-36.2,75.87-140.14,92.78-164.01c2.11-2.99,17.45-21.16,18.89-15.41c-2.35,28.3-99.19,175.85-98.02,186.33
		C662.05,330,668.85,332.45,670.51,333.8z"/>
	<path class="st0" d="M689.32,344.22c-5.41-1.92-10.12-3.72-14.9-6.96c0.08-1.9,0.08-1.9,0.16-3.79
		c26.6-41.05,65.06-121.92,87.35-155.37c16.88-25.34,31.22-36.52,13.08,2.07c-11.74,24.97-85.81,151.98-87.83,160.92
		C686.95,342.06,688.07,343.94,689.32,344.22z"/>
</g>
<g>
	<path class="st2" d="M676.49,901.16c5.2-1.99,6.45-3.99,9.96-7.81c13.08-14.22,9.86-37.75,4.4-54.76
		c9.82,9.94,11.33,40.59,5.17,52.28C691.78,898.9,677.53,912.23,676.49,901.16z"/>
	<g>
		<path class="st0" d="M533.39,576.19c28.77,56.49,59.98,111.4,95.38,164c20.61,15.1,49.08,65.44,58.87,89.86
			c1.22,3.03,2.21,5.38,3.22,8.54c5.46,17.01,8.68,40.55-4.4,54.76c-51.27-62.07-133.72-217.39-167.7-291.54
			c-2.83-6.17-7.52-11.45-5.88-14.81C523.13,581.59,523.13,581.59,533.39,576.19z"/>
		<path class="st1" d="M563.04,731.97c-14.23-35.56-37.83-84.93-54.72-120.83c4.13-1.1-3.88-10.76-8.29-20.58
			c11.33-10.44,11.31,4.26,18.72,11.24c33.98,74.16,116.43,229.47,167.7,291.54c-3.51,3.81-4.76,5.82-9.96,7.81
			c-12.86,4.92-30.65-4.26-40.75-11.79c-34.42-25.64-51.49-75.33-60.93-115.63"/>
		<path class="st3" d="M471.22,509.18c17.33,35.32,17.33,35.32,34.66,70.64c11.91-5.32,11.91-5.32,23.82-10.63
			c1.19,2.36,2.49,4.66,3.69,7.01c-10.26,5.41-10.26,5.41-20.52,10.82c-1.63,3.36,3.06,8.64,5.88,14.81
			c-7.41-6.98-7.39-21.68-18.72-11.24c4.4,9.82,12.42,19.48,8.29,20.58c-18-38.27-36.51-76.25-55.08-114.24
			C461.95,485.17,464.08,504.13,471.22,509.18z"/>
	</g>
	<g>
		<path class="st4" d="M381.91,143.07c51.88,34.66,86.22,103.67,90.84,165.11c2.48,32.91-8,83.11-6.11,104.92
			c-3.62,3.32-6.44-15.16-7.28-21.11c-2.85-19.98-2.47-40.99-4.09-61.16c-0.34-4.2,0.23-10.55-0.38-17.71
			c-0.99-11.63-0.6-23.32-3.02-34.86c-20-95.23-111.12-172.86-174.32-139.03c-6.89,3.69-10.74,8.02-15.91,13.5
			c-42.34,44.87-20.3,128.92,9.05,174.96c47.68,74.8,126.32,82.66,164.03,119.51c24.57,24.01,22.72,34.92,36.5,61.99
			c-7.14-5.05-9.27-24.01-17.98-12.27c-30.73-52.68-102.78-60.36-149.68-99.57c-71.24-59.54-112.63-170.28-54.73-251.94
			c1.5-1.19,2.96-2.53,4.48-3.64c2.53-1.83,7.16-7.39,9.93-9.07C298.35,109.73,348.93,121.03,381.91,143.07z"/>
		<g>
			<path class="st5" d="M261.63,152.72c53.62,64.28,104.51,165.43,193.63,178.1c1.62,20.18,1.24,41.19,4.09,61.16
				c0.85,5.94,3.66,24.43,7.28,21.11c0.94,10.85,6.57,33.65,10.3,43.82c4.97,13.54,43.11,93.15,52.76,112.27
				c-11.91,5.32-11.91,5.32-23.82,10.63c-17.33-35.32-17.33-35.32-34.66-70.64c-13.78-27.07-11.93-37.98-36.5-61.99
				C397,410.33,318.36,402.47,270.68,327.67C241.33,281.64,219.3,197.59,261.63,152.72z"/>
			<g>
				<path class="st6" d="M277.55,139.22c50.91,64.75,93.55,147.91,177.34,173.9c0.61,7.16,0.04,13.51,0.38,17.71
					C366.15,318.15,315.26,217,261.63,152.72C266.81,147.24,270.66,142.91,277.55,139.22z"/>
				<path class="st7" d="M454.89,313.11c-83.79-25.99-126.43-109.15-177.34-173.9c63.2-33.83,154.31,43.8,174.32,139.03
					C454.29,289.8,453.89,301.49,454.89,313.11z"/>
			</g>
		</g>
	</g>
</g>
</svg>
