<?xml version="1.0" encoding="utf-8"?>
<!-- Generator: Adobe Illustrator 28.0.0, SVG Export Plug-In . SVG Version: 6.00 Build 0)  -->
<svg version="1.1" id="Calque_1" xmlns="http://www.w3.org/2000/svg" xmlns:xlink="http://www.w3.org/1999/xlink" x="0px" y="0px"
	 viewBox="0 0 1024 1024" style="enable-background:new 0 0 1024 1024;" xml:space="preserve">
<style type="text/css">
	.st0{display:none;}
	.st1{display:inline;fill:#C5BFBA;}
	.st2{display:inline;fill:#A19F9F;}
	.st3{display:inline;fill:#938E8D;}
	.st4{display:inline;fill:#837D7D;}
	.st5{display:inline;fill:#D9D7D1;}
	.st6{fill:#E3AB39;}
	.st7{fill:#932F32;}
	.st8{fill:url(#SVGID_1_);}
	.st9{fill:#B6681C;}
	.st10{fill:#D2AB39;}
	.st11{fill:#E8D3BE;}
	.st12{fill:#C5BFBA;}
	.st13{fill:#EEE3D7;}
	.st14{fill:#E4CB98;}
	.st15{fill:#BF7C28;}
	.st16{fill:#A85D23;}
</style>
<g>
	<g id="Background_00000149352679991669717600000004622188917599493254_" class="st0">
		<path class="st1" d="M933.64,0.72c1.18,8.3-18.47,11.81-18.99,13.49c-0.35,1.13,2.99,4.19,3,5c0.04,3.71-34.66,36.09-39.97,41.97
			c-9.33,10.33-16.6,22.94-27.98,30.98c-1.28,9.71-8.95,15.98-13.99,23.98c-5.34,8.48-10.54,21.61-17.99,25.98
			c1.28,9.72-1.78,15.67-7.99,22.98c6.53,5.31,0.46,8.21,0,10.99c-1.24,7.51,0.7,19.19-5,27.98c2.04,16.17-5.71,32.23-16.99,42.97
			c-0.04,14.3-12.77,13.55-4,30.98c-17.13,14.29-5.83-6.06-13.49-5.5c-2.57,0.19-3.65,16.1-3.5,19.49c0.02,0.35,2.91,0.95,3,2
			c0.7,8.78-2.71,16.2-2,24.98c0.03,0.37,4.67,1.44-1,1.5c-1.8-28.19-1.16-57.56-8.99-84.94c-11.39-39.84-43.09-54.63-82.94-51.96
			c-0.49-7,0.47-19.07-9.49-20.98c-11.45-2.2-8.75,3.8-10.49,11.99c-5.5,0-5.5,0-10.99,0c-1.72-14.23-6.81-15.15-19.99-9.49
			c0.76,3.31-0.6,6.44-1,9.49c-5.5,0-5.5,0-10.99,0c-1.32-8.41,2.91-13.34-18.49-11.99c-1.25,1.25-1.25,1.25-2.5,2.5
			c0.75,5.26-0.58,10.34-1,15.49c-8.49,0-8.49,0-16.99,0c-0.57-9.69,2.77-21.28-12.49-18.99c-9.77,1.47-8.67,11.55-9.49,18.99
			c-8.49,0-8.49,0-16.99,0c-0.16-0.96-6.6-17.6-7.49-17.99c-0.55-0.24-11.5-0.35-11.99,0c-1.11,0.78-0.28,8.98-0.5,10.99
			c-4.2,1.66-7.08,0.95-10.99-1c-2.09-13.07-18.45-10.72-19.49-9.99c-0.82,0.58-1.32,17.24-1.5,19.99c-15.49,0-15.49,0-30.98,0
			c-1.04-15.38,4.55-22.48-18.99-19.49c0.72,5.92-0.54,11.66-1,17.49c-7.49-0.5-7.49-0.5-14.99-1c-0.07-2.4,0.5-15.28-0.5-15.99
			c-8.49,0-8.49,0-16.99,0c-1.13,0.8-0.26,8.97-0.5,10.99c-5.19-1.54-9.89,0.2-10.99,0c-9.48-1.72-0.96-16.74-17.49-11.99
			c-0.93,0.27-2.35,2.87-2.5,3c-3.45,2.92-5.64,10.57-8.99,10.99c-0.2-0.79-7.47-13.65-8.49-13.99
			c-16.28-5.43-11.78,7.71-12.49,16.99c-69.85,8.58-80.31,35.07-89.93,100.43c-1.76,85.74-3.56,171.39-9.99,256.81
			c-0.29,29.94-0.35,60.01-1,89.93c-0.01,0.32-1.99,5.68-2,6c-0.39,19.46-2.08,103.2,1,115.91c5.31,21.93,21.52,41.16,39.97,53.46
			c-32.7-19.63-42.36-41.41-43.97-78.94c-2.52-58.84,5.86-140.87,5-202.35c-19.73-3.12-37.15,28.84-59.46,35.47
			c-9.35,13.73-21.12,28.14-35.97,35.97c-15.83,19.01-35.9,34.19-52.46,52.46c-2.02,2.23-8.22,12.96-9.99,14.99
			c-6.59,7.52-14.42,14.34-20.98,21.98c-1.01,1.17-8.63,13.24-16.99,22.98c-12.6,14.68-26.14,28.92-39.97,42.47
			c-0.19-211.5-0.53-423.03,0-634.53c8.48-2.64,19.67-37.1,28.98-55.46c0.56-1.1,7.27-3.67,6-12.99c8.07-4.63,3.36-8.35,4-9.99
			c0.89-2.3,10.21,0.09,4-10.99c10.45-6-7.77-8.37,13.99-22.48C349.31-1.17,641.62-0.37,933.64,0.72z"/>
		<path class="st2" d="M284.13,806.12c1.69,0.98,3.28,2.03,5,3c34.95,19.63,66.89,33.46,105.42,44.97
			c81.81,24.43,238.9,47.15,316.26,9.99c4.31-2.07,13.42-6.67,16.99-8.99c11.12,8.84,30.81,11.21,40.97,22.98
			c-78.5,10.51-160.28,8.27-239.32,9.99c-65.81,7.14-131.69,14.02-196.85,25.98c0,1,0,1,0,2c14.41,5.18,29.75,7.02,44.47,10.99
			c6.85,1.85,16.1,6.08,23.48,7.99c27.05,6.99,54.89,11.8,81.94,18.99c78.22,20.77,155.33,46.37,234.83,61.95
			c58.21,1.67,116.56,0.76,174.87,1c0.75,0,0.25,2,1,2c2.3,0.01,1.2-2,2-2c41.36,0.19,83.84,1.61,124.41,0.5
			c-3.76-35.43,1.05-71.08,1-106.42c1.5,0,1.5,0,3,0c-0.09,37.64,0.07,75.28,0,112.92c-127.9,0.05-255.81-0.07-383.71,0
			c-16.96-3.95-43.01-6.11-59.46-6.99c-0.72-0.04-0.28,2.04-1,2c-5.17-0.27-3.23-1.96-4-2c-4.58-0.21-19.4,3.69-21.98-1
			c-263.3-2.5-263.3-2.5-526.61-5c35.96-32.67,80.9-55.71,115.41-90.43c1.89-1.9,4.13-8.12,5-8.99
			c9.79-9.91,20.11-19.19,29.98-28.98c0.26-0.26,1.15-4.22,3.5-6.5c0.82-0.8,5.67-2.7,6-3c11.33-10.64,22.47-21.51,33.97-31.98
			c14.34-6.25,26.49-16.32,39.97-23.98c4.57-2.59,10.53-2.79,14.99-6C280.96,807.28,274.16,804.45,284.13,806.12z"/>
		<path class="st1" d="M1017.58,0.72c1.96,0.2,4.02-0.14,6,0c-0.56,303.44,0.75,606.88,0,910.32c-1.5,0-1.5,0-3,0
			c-0.04-30.04-2.93-60.35-3-90.43c-0.07-30.48,0.01-60.95,0-91.43c-0.02-96.87,2.84-193.93,1-290.78c4.97-3.28,4.29-32.67,0-37.47
			c0-117.41,0-117.41,0-234.83c-1.55-2.08-0.57-4.75-4.5-3.5c-4.35,1.39-45.24,74.05-46.47,78.44c-2.36,8.46,6.68,7.61,2,15.99
			c5.1,0.79,4.53,12.94,4,14.99c-1.49,5.78-54.12,90.19-61.95,101.92c-19.56,29.33-43.2,62.98-67.95,87.93
			c-13.19,13.3-43.63,40.39-59.96,44.97c0.18,1.44-0.24,3.9-1,5c-10.47,15.07,0.22,17.12-6,19.49
			c-2.56-47.62-4.41-95.28-6.99-142.89c1.57,0.36,6.64-1.46,7.49-2c2.62-1.64,34.03-42.45,38.47-48.46
			c30.34-41.1,61.23-93.4,88.93-136.9c-3.94-12.71,0.19-20.34-1-30.98c8.52-4.35,2.9-8.89,7.99-17.99
			c21.92-30.36,46.35-59.4,67.95-89.93c0.44-0.62-0.44-4.37,0-5c3.28-4.67,6.73-5.62,6.99-6c1.19-1.73-1.27-7.71,24.48-33.48
			C1015.87,12.93,1018.88,18.65,1017.58,0.72z"/>
		<path class="st2" d="M231.17,723.19c1.61,37.54,11.27,59.31,43.97,78.94c0.42,0.25,5,1.67,8.99,4c-9.96-1.67-3.16,1.16-8.49,5
			c-4.45,3.21-10.42,3.4-14.99,6c-13.48,7.66-25.63,17.74-39.97,23.98c-11.5,10.47-22.64,21.34-33.97,31.98c-0.32,0.3-5.17,2.2-6,3
			c-2.35,2.28-3.24,6.24-3.5,6.5c-9.87,9.79-20.19,19.07-29.98,28.98c-0.86,0.87-3.11,7.1-5,8.99
			c-34.52,34.73-79.45,57.76-115.41,90.43c263.3,2.5,263.3,2.5,526.61,5c2.58,4.69,17.4,0.79,21.98,1c0.77,0.04-1.17,1.73,4,2
			c0.72,0.04,0.28-2.04,1-2c16.45,0.88,42.49,3.05,59.46,6.99c-213.17,0.12-426.35-0.09-639.52,0c-0.08-32.97,0.1-65.95,0-98.93
			c23.52-33.02,46.95-65.84,77.44-92.93c3.03-2.69,24.06-17.01,24.48-18.49c2.22-7.72-4.76,7.01-24.48,6.5c-0.76-0.02-0.23-1.95-1-2
			c-1.25-0.08-4.76,3.94-7.49,1.5c-0.36-0.32-1.4-5.82,0-6.99c0.95-0.8,5.27,4.14,6.99,0c1-2.39-1.12-6.57-1-6.99
			c2.71-9.13,37.42-31.31,45.47-40.47c23.21-12.77,43.33-27.96,65.95-41.97C204.75,716.6,213.25,722.8,231.17,723.19z"/>
		<path class="st1" d="M231.17,723.19c-17.91-0.38-26.42-6.59-44.47,0c-22.62,14-42.75,29.2-65.95,41.97
			c-8.04,9.15-42.76,31.34-45.47,40.47c-0.13,0.42,2,4.6,1,6.99c-1.73,4.14-6.04-0.8-6.99,0c-1.4,1.18-0.36,6.68,0,6.99
			c2.73,2.45,6.24-1.58,7.49-1.5c0.77,0.05,0.24,1.98,1,2c19.72,0.52,26.7-14.21,24.48-6.5c-0.42,1.47-21.45,15.79-24.48,18.49
			c-30.49,27.1-53.92,59.91-77.44,92.93c-0.19-59.29,0.05-118.58,0-177.87c13.83-13.55,27.37-27.79,39.97-42.47
			c8.36-9.74,15.98-21.81,16.99-22.98c6.57-7.65,14.39-14.46,20.98-21.98c1.77-2.03,7.97-12.76,9.99-14.99
			c16.56-18.27,36.63-33.45,52.46-52.46c14.85-7.84,26.62-22.24,35.97-35.97c22.3-6.63,39.73-38.6,59.46-35.47
			C237.02,582.31,228.65,664.35,231.17,723.19z"/>
		<path class="st1" d="M1017.58,0.72c1.3,17.92-1.71,12.2-6.5,16.99c-25.75,25.76-23.29,31.75-24.48,33.48
			c-0.26,0.38-3.72,1.33-6.99,6c-0.44,0.63,0.44,4.37,0,5c-21.6,30.53-46.03,59.57-67.95,89.93c-5.09,9.1,0.53,13.64-7.99,17.99
			c1.19,10.64-2.95,18.26,1,30.98c-27.7,43.5-58.6,95.8-88.93,136.9c-4.44,6.01-35.85,46.82-38.47,48.46
			c-0.86,0.54-5.93,2.35-7.49,2c-1.23-22.62-1.55-45.33-3-67.95c5.67-0.06,1.03-1.13,1-1.5c-0.71-8.78,2.7-16.2,2-24.98
			c-0.08-1.05-2.98-1.65-3-2c-0.15-3.39,0.93-19.3,3.5-19.49c7.66-0.56-3.64,19.79,13.49,5.5c-8.78-17.43,3.96-16.68,4-30.98
			c11.28-10.73,19.02-26.79,16.99-42.97c5.7-8.79,3.76-20.47,5-27.98c0.46-2.79,6.53-5.68,0-10.99c6.21-7.32,9.27-13.26,7.99-22.98
			c7.44-4.37,12.65-17.5,17.99-25.98c5.04-8,12.71-14.28,13.99-23.98c11.38-8.04,18.65-20.65,27.98-30.98
			c5.31-5.88,40.01-38.26,39.97-41.97c-0.01-0.81-3.35-3.87-3-5c0.52-1.68,20.16-5.19,18.99-13.49
			C954.9,0.8,1005.3-0.54,1017.58,0.72z"/>
		<path class="st1" d="M57.3,0.72c-21.76,14.11-3.54,16.49-13.99,22.48c6.22,11.08-3.11,8.69-4,10.99c-0.63,1.64,4.07,5.36-4,9.99
			c1.28,9.32-5.44,11.89-6,12.99C20.01,75.54,8.82,110,0.34,112.64c0.09-37.31-0.07-74.61,0-111.92C19.32,0.63,38.31,0.85,57.3,0.72
			z"/>
		<path class="st2" d="M1018.58,438.4c1.84,96.86-1.02,193.92-1,290.78c-0.13-10.2-17.63-2.31-21.98,3.5
			c-1.17,2.71,0.16,4.28-2,6.99c-20.47,25.78-70.26,80.2-96.43,97.43c-25.95,17.09-73.7,32.42-104.42,37.97
			c-7.76,1.4-16.11,1.94-23.98,3c-10.16-11.77-29.85-14.14-40.97-22.98c87.42-56.86,52.33-163.17,56.96-192.86
			c0.04-0.28,1.55,0.62,1-5.5c9.65-4.74,19.63-19.51,29.48-29.48c9.21-9.32,20.36-17.12,29.48-26.48
			c6.1-6.27,15.04-17.91,18.99-21.98c25.35-26.15,51.95-51.5,76.94-77.94c2.95-3.12,5.13-7.95,7.99-10.99
			c8.62-9.16,26.95-25,36.97-34.97c7.47-14.06,17.76-22.38,18.99-23.98C1017.98,413.39,1017.76,395.43,1018.58,438.4z"/>
		<path class="st3" d="M1017.58,729.18c0.01,30.48-0.07,60.96,0,91.43c0.07,30.08,2.95,60.39,3,90.43
			c0.05,35.34-4.76,70.99-1,106.42c-40.57,1.12-83.05-0.31-124.41-0.5c-0.8,0,0.3,2.01-2,2c-0.75,0-0.25-2-1-2
			c-58.31-0.24-116.65,0.67-174.87-1c-79.49-15.59-156.6-41.19-234.83-61.95c-27.05-7.18-54.89-11.99-81.94-18.99
			c-7.39-1.91-16.63-6.15-23.48-7.99c127.82,5.03,255.67,4.43,383.21-6c47.61-3.89,109.47-8.86,154.88-21.98
			c3.23-0.93,50.8-17.49,45.97-19.99c-84.19-2-84.19-2-168.37-4c30.72-5.55,78.47-20.88,104.42-37.97
			c26.17-17.23,75.96-71.65,96.43-97.43c2.16-2.72,0.83-4.29,2-6.99C999.95,726.87,1017.45,718.98,1017.58,729.18z"/>
		<path class="st4" d="M792.75,875.07c84.19,2,84.19,2,168.37,4c4.84,2.5-42.73,19.05-45.97,19.99
			c-45.42,13.12-107.27,18.09-154.88,21.98c-127.54,10.43-255.4,11.03-383.21,6c-14.71-3.97-30.06-5.81-44.47-10.99c0-1,0-1,0-2
			c65.16-11.96,131.04-18.84,196.85-25.98c79.04-1.73,160.82,0.51,239.32-9.99C776.63,877.02,784.99,876.47,792.75,875.07z"/>
		<path class="st2" d="M1018.58,438.4c-0.82-42.97-0.6-25-13.99-7.49c-1.23,1.6-11.52,9.93-18.99,23.98
			c-10.03,9.98-28.35,25.82-36.97,34.97c-2.86,3.04-5.05,7.87-7.99,10.99c-24.99,26.44-51.59,51.8-76.94,77.94
			c-3.95,4.07-12.88,15.72-18.99,21.98c-9.12,9.36-20.27,17.16-29.48,26.48c-9.84,9.96-19.82,24.74-29.48,29.48
			c0.55,6.11-0.96,5.22-1,5.5c-2.79-43.62-5.64-87.26-7.99-130.9c6.22-2.36-4.47-4.41,6-19.49c0.76-1.1,1.17-3.56,1-5
			c16.32-4.57,46.77-31.67,59.96-44.97c24.75-24.96,48.39-58.61,67.95-87.93c7.83-11.74,60.47-96.15,61.95-101.92
			c0.53-2.05,1.1-14.2-4-14.99c4.69-8.37-4.35-7.53-2-15.99c1.22-4.39,42.12-77.05,46.47-78.44c3.92-1.25,2.94,1.42,4.5,3.5
			c0,117.41,0,117.41,0,234.83C1022.87,405.72,1023.55,435.12,1018.58,438.4z"/>
		<path class="st5" d="M545.93,200.57c4.16,6.75,1.45,24.19,2,34.47c-6.99-0.25-6.99-0.25-13.99-0.5c0.63-7.46,0.37-26.54,0-34.97
			C539.94,200.07,539.94,200.07,545.93,200.57z"/>
	</g>
	<g>
		<path class="st6" d="M337.09,179.59c-0.49,6.4-0.8,12.57-1,18.99c-48.61-3.5-65.3,19.58-71.95,64.45
			c0.5,228.33,0.5,228.33,1,456.66c2.07,30.03,21.13,63.35,53.46,67.45c30.73,3.89,210.02-2.95,260.81,0c2.69-0.93,5.79-2.31,8.49-3
			c59.24,8.78,104.92-2.76,134.9-57.46c5.36-9.77,7.35-22.11,14.99-30.48c-0.42,21.85,2.85,44.03-4,65.45
			c-13.8,43.2-77.07,51.48-115.41,53.46c-48.62,2.52-181.3,0.23-237.32-1c-30.75-0.67-61.63,1.35-91.93-5c-1.72-0.97-3.31-2.02-5-3
			c-4-2.33-8.57-3.74-8.99-4c-18.45-12.3-34.66-31.53-39.97-53.46c-3.07-12.71-1.39-96.45-1-115.91c0.01-0.32,1.99-5.68,2-6
			c0.65-29.92,0.71-60,1-89.93c6.44-85.42,8.24-171.07,9.99-256.81C256.78,214.66,267.24,188.17,337.09,179.59z"/>
		<path class="st7" d="M572.91,180.59c0.34,5.72,0.96,12.35,1,17.99c0.09,12.21-0.66,46.14-6.99,55.46
			c-5.04,7.41-15.13,9.55-16.99,4c-0.91-2.73-0.32-50.49,0-57.46c0.29-6.4,0.3-13.72,1-19.99c0.83-7.44-0.27-17.52,9.49-18.99
			C575.68,159.31,572.34,170.9,572.91,180.59z"/>
		<path class="st7" d="M533.94,180.59c0.65,3.95-0.26,12.98,0,18.99c0.37,8.43,0.63,27.51,0,34.97
			c-1.57,18.65-10.03,32.96-29.98,35.47c13.6-18.24,8.59-42.57,8.99-64.45c0.01-0.4-1.07-0.98-1-5c0.05-3.33-0.12-6.67,0-9.99
			c0.19-5.43,1.41-11.52,2-16.99c0.22-2.01-0.61-10.21,0.5-10.99c0.49-0.35,11.44-0.24,11.99,0
			C527.34,162.99,533.78,179.63,533.94,180.59z"/>
		<path class="st7" d="M387.05,174.59c-0.02,15.29-0.97,30.73-2,45.97c-0.75,11.05-1.52,21.89-1,32.98
			c-1.75,7.01-18.51,12.05-24.98,13.49c9.11-15.57,3.31-33.61,4-50.46c0.45-11.15-0.1-26.11,0-27.48c0.09-1.2,6.04-16.84,4-23.48
			c0.15-0.13,1.57-2.73,2.5-3C386.09,157.86,377.57,172.87,387.05,174.59z"/>
		<path class="st7" d="M502.96,172.6c0.6,3.76-0.18,12.35,0,17.99c0.1,3.17-0.01,6.78,0,9.99c0.02,6.31,0.21,12.69,0,18.99
			c-0.2,5.76-0.58,32.8-1,34.47c-1.81,7.18-17.9,10.38-19.99,5c-1.07-2.77-1.17-52.41-1-59.46c0.13-5.4,0.64-11.54,1-16.99
			c0.18-2.75,0.68-19.41,1.5-19.99C484.51,161.87,500.87,159.52,502.96,172.6z"/>
		<path class="st7" d="M358.07,176.59c1.38,5.56-2.86,13.22,3,16.49c-4.47,9.52-4.17,20.31-5,30.48c-0.83,10.15-2.25,20.35,0,30.48
			c-15.8,16.82-18.53,4.46-19.99-11.99c-0.76-8.62-0.32-32.88,0-43.47c0.19-6.42,0.51-12.59,1-18.99
			c0.71-9.28-3.79-22.42,12.49-16.99C350.6,162.95,357.87,175.8,358.07,176.59z"/>
		<path class="st7" d="M416.03,179.59c0.2,6.94,0.17,14.05,0,20.98c-0.95,37.95,0.54,60.73-27.48,67.95
			c-1.77-0.93,5.63-12,6.5-17.99c1.17-8.14-0.62-33.24,0-46.97c0.44-9.76,1.84-19.3,3-28.98c0.24-2.02-0.63-10.19,0.5-10.99
			c8.49,0,8.49,0,16.99,0C416.53,164.31,415.96,177.19,416.03,179.59z"/>
		<path class="st6" d="M757.77,235.55c-8.79-19.1-23.05-30.9-43.47-35.97c-2.69-0.67-3.32,1.04-3.5,1c-12.87-2.65-19.91-5.5-35.97-4
			c0-4.28,0.3-8.74,0-12.99C714.69,180.92,746.38,195.71,757.77,235.55z"/>
		<path class="st6" d="M481.98,182.59c-0.36,5.45-0.87,11.59-1,16.99c-14.49,0-14.49,0-28.98,0c0.04-5.35-0.63-11.61-1-16.99
			C466.49,182.59,466.49,182.59,481.98,182.59z"/>
		<path class="st6" d="M398.04,174.59c-1.16,9.68-2.55,19.22-3,28.98c-5,8.49-5,8.49-9.99,16.99c1.03-15.24,1.97-30.68,2-45.97
			C388.16,174.79,392.85,173.06,398.04,174.59z"/>
		<path class="st6" d="M550.93,180.59c-0.69,6.26-0.71,13.58-1,19.99c-2,0-2,0-4,0c-6-0.5-6-0.5-11.99-1
			c-0.26-6.01,0.65-15.04,0-18.99C542.43,180.59,542.43,180.59,550.93,180.59z"/>
		<path class="st6" d="M363.07,216.56c-3.5,3.5-3.5,3.5-6.99,6.99c0.83-10.17,0.53-20.95,5-30.48c-5.86-3.27-1.62-10.92-3-16.49
			c3.35-0.43,5.54-8.07,8.99-10.99c2.04,6.64-3.91,22.28-4,23.48C362.96,190.45,363.52,205.41,363.07,216.56z"/>
		<path class="st6" d="M431.02,180.59c-0.51,6.44-0.75,13.5-1,19.99c-6.99,0-6.99,0-13.99,0c0.17-6.94,0.2-14.05,0-20.98
			C423.52,180.09,423.52,180.09,431.02,180.59z"/>
		<path class="st6" d="M589.9,180.59c-0.46,5.69-0.85,12.3-1,17.99c-7.49,0-7.49,0-14.99,0c-0.04-5.63-0.66-12.26-1-17.99
			C581.41,180.59,581.41,180.59,589.9,180.59z"/>
		<path class="st6" d="M513.96,173.59c-0.59,5.47-1.81,11.56-2,16.99c-4.5,0-4.5,0-8.99,0c-0.18-5.64,0.6-14.22,0-17.99
			C506.88,174.55,509.75,175.26,513.96,173.59z"/>
		<path class="st6" d="M622.87,174.59c-0.65,4.95-0.66,10.86-1,15.99c-4.5,0-4.5,0-8.99,0c-0.19-5.42-0.16-10.6-1-15.99
			C617.38,174.59,617.38,174.59,622.87,174.59z"/>
		<g>
			<linearGradient id="SVGID_1_" gradientUnits="userSpaceOnUse" x1="534.3817" y1="490.6964" x2="819.172" y2="737.2971">
				<stop  offset="0" style="stop-color:#932C2D"/>
				<stop  offset="1" style="stop-color:#621D1F"/>
			</linearGradient>
			<path class="st8" d="M757.77,235.55c7.83,27.38,7.19,56.75,8.99,84.94c1.45,22.62,1.77,45.32,3,67.95
				c2.58,47.62,4.43,95.27,6.99,142.89c2.35,43.64,5.2,87.29,7.99,130.9c-4.63,29.69,30.46,136-56.96,192.86
				c-3.57,2.32-12.68,6.92-16.99,8.99c-12.12,1.14-17.02,9.28-36.47,7.99c-67.93-11.11-135.24-26.06-202.85-38.97
				c-25.43-4.85-51.66-7.49-76.94-12.99c-3.02-0.66-12.89-2.87-13.49-6c56.03,1.23,188.7,3.51,237.32,1
				c38.34-1.98,101.61-10.26,115.41-53.46c6.85-21.42,3.57-43.6,4-65.45c0.47-24.26,1.05-47.65,0-71.95
				c-0.38-8.82-2.4-48.95-3-51.46c-0.18-0.74-1.33-0.51-2-0.5c0.22-3.95,0.87-7.9,1-11.99c0.59-18.15,0.39-36.83-1-54.96
				c4.1-24.77,6.24-76.68,6.99-103.42c0.83-29.49,1.42-144.35-4-165.88c-3.05-12.12-12.8-30.08-24.98-35.47
				c0.18,0.04,0.81-1.67,3.5-1C734.73,204.65,748.98,216.45,757.77,235.55z"/>
			<path class="st7" d="M381.05,814.12c0.6,3.12,10.47,5.34,13.49,6c25.28,5.5,51.52,8.14,76.94,12.99
				c67.61,12.91,134.91,27.86,202.85,38.97c19.46,1.29,24.35-6.85,36.47-7.99c-77.37,37.16-234.46,14.44-316.26-9.99
				c-38.53-11.51-70.47-25.34-105.42-44.97C319.42,815.47,350.3,813.44,381.05,814.12z"/>
		</g>
		<g>
			<path class="st7" d="M643.86,174.59c0.45,3.72-0.83,23.9,0.5,24.98c9.42-6.43,8.48-15.55,10.49-24.98
				c1.74-8.19-0.96-14.19,10.49-11.99c9.96,1.92,9,13.98,9.49,20.98c0.3,4.25,0,8.71,0,12.99c0.02,25.09,0,72.24-33.97,71.45
				c14.59-8.47,11.26-31.74,10.99-47.46c-0.05-2.79,0.5-19.21-0.5-19.99c-9.92,8.68-6.66,13.75-7.49,19.99
				c-1.84,13.81,0.32,51.02-21.98,39.47c1.64-20.29-1.86-41.27-1-61.45c0.1-2.32,0.83-5.41,1-7.99c0.34-5.12,0.35-11.03,1-15.99
				c0.4-3.05,1.76-6.18,1-9.49C637.05,159.44,642.14,160.36,643.86,174.59z"/>
			<path class="st7" d="M611.88,174.59c0.84,5.39,0.81,10.57,1,15.99c0.24,7.03-1.3,14.61,2,20.98
				c-4.06,16.99-0.29,49.67-23.48,50.96c-1.27-20.78-3.03-43.22-2.5-63.95c0.15-5.69,0.54-12.3,1-17.99
				c0.42-5.14,1.75-10.23,1-15.49c1.25-1.25,1.25-1.25,2.5-2.5C614.79,161.25,610.57,166.18,611.88,174.59z"/>
			<path class="st6" d="M654.85,174.59c-2.01,9.43-1.07,18.55-10.49,24.98c-1.33-1.08-0.05-21.26-0.5-24.98
				C649.35,174.59,649.35,174.59,654.85,174.59z"/>
			<path class="st6" d="M651.85,220.56c-4,0-4,0-7.99,0c0.83-6.24-2.42-11.31,7.49-19.99C652.36,201.35,651.8,217.77,651.85,220.56z
				"/>
		</g>
		<path class="st9" d="M621.87,190.58c-0.17,2.58-0.9,5.67-1,7.99c-2.97,3.39-4.98,8.76-6,12.99c-3.3-6.38-1.76-13.95-2-20.98
			C617.38,190.58,617.38,190.58,621.87,190.58z"/>
		<path class="st10" d="M511.96,200.57c-0.07,4.02,1.01,4.59,1,5c-6.45,0.85-6.11,13.28-9.99,13.99c0.21-6.3,0.02-12.68,0-18.99
			C507.46,200.57,507.46,200.57,511.96,200.57z"/>
		<path class="st9" d="M511.96,190.58c-0.12,3.32,0.05,6.67,0,9.99c-4.5,0-4.5,0-8.99,0c-0.01-3.21,0.1-6.83,0-9.99
			C507.46,190.58,507.46,190.58,511.96,190.58z"/>
		<g>
			<path class="st7" d="M451,182.59c0.36,5.37,1.04,11.63,1,16.99c-0.09,12.05-1.39,48.77-8.99,57.46c-4.85,5.55-11.57,5.5-12.99,1
				c-0.86-2.74-0.28-50.25,0-57.46c0.25-6.49,0.49-13.54,1-19.99c0.46-5.83,1.72-11.56,1-17.49
				C455.55,160.11,449.96,167.21,451,182.59z"/>
			<path class="st11" d="M733.79,560.31c-0.13,4.09-0.78,8.04-1,11.99c-1.65,30.1-4.32,56.32-14.99,84.94
				c-1.46,3.93-4.99,10.76-6.99,14.99c-6.76,6.13-11.64,18.79-16.99,26.48c-17.77,25.53-44.34,49.65-70.45,66.45
				c-0.75-26.73-0.75-26.73-1.5-53.46c1.25-1.02,2.09-2.18,3-3.5c2.26-3.27,22.39-21.46,30.98-31.48
				c17.47-20.38,49.33-62.23,61.95-84.94C723.4,581.72,726.93,568.37,733.79,560.31z"/>
			<path class="st6" d="M733.79,560.31c-6.86,8.07-10.39,21.41-15.99,31.48c-12.62,22.71-44.49,64.56-61.95,84.94
				c-8.58,10.01-28.72,28.21-30.98,31.48c-10.75,8.31-22.05,15.92-32.98,23.98c-4.72-0.57,3.58,0.03,0-7.99
				c30.43-28.02,113.65-140.62,128.9-177.37c4.54-10.94,10.05-29.77,11.99-41.47C734.18,523.48,734.38,542.15,733.79,560.31z"/>
			<path class="st12" d="M395.04,250.54c-5.24,1.17-3.57,7.33-10.99,3c-0.52-11.08,0.25-21.92,1-32.98c5-8.49,5-8.49,9.99-16.99
				C394.42,217.29,396.22,242.4,395.04,250.54z"/>
			<g>
				<path class="st13" d="M710.81,200.57c12.18,5.39,21.93,23.35,24.98,35.47c5.42,21.53,4.83,136.39,4,165.88
					c-0.76,26.74-2.89,78.65-6.99,103.42c-1.94,11.7-7.45,30.53-11.99,41.47c-15.25,36.75-98.48,149.35-128.9,177.37
					c-13.36,12.31-33.32,25.18-46.97,38.47c15.32-4.26,33.77-20.74,46.97-30.48c10.92-8.06,22.22-15.67,32.98-23.98
					c-0.91,1.32-1.75,2.48-3,3.5c0.75,26.73,0.75,26.73,1.5,53.46c26.11-16.8,52.68-40.92,70.45-66.45
					c5.35-7.69,10.22-20.35,16.99-26.48c-20.33,42.98-76.35,100.05-122.91,111.92c-2.7,0.69-5.8,2.07-8.49,3
					c-50.79-2.95-230.07,3.89-260.81,0c-32.33-4.1-51.39-37.42-53.46-67.45c-0.5-228.33-0.5-228.33-1-456.66
					c6.64-44.87,23.34-67.95,71.95-64.45c-0.32,10.59-0.76,34.84,0,43.47c1.46,16.45,4.18,28.81,19.99,11.99
					c-2.25-10.13-0.83-20.33,0-30.48c3.5-3.5,3.5-3.5,6.99-6.99c-0.68,16.85,5.12,34.89-4,50.46c6.47-1.44,23.23-6.48,24.98-13.49
					c7.42,4.33,5.75-1.83,10.99-3c-0.86,5.98-8.27,17.06-6.5,17.99c28.01-7.22,26.53-29.99,27.48-67.95c6.99,0,6.99,0,13.99,0
					c-0.28,7.21-0.86,54.72,0,57.46c1.42,4.5,8.14,4.55,12.99-1c7.6-8.68,8.9-45.41,8.99-57.46c14.49,0,14.49,0,28.98,0
					c-0.17,7.04-0.07,56.68,1,59.46c2.08,5.38,18.18,2.18,19.99-5c0.42-1.67,0.8-28.72,1-34.47c3.88-0.71,3.55-13.14,9.99-13.99
					c-0.41,21.89,4.61,46.22-8.99,64.45c19.95-2.52,28.41-16.83,29.98-35.47c6.99,0.25,6.99,0.25,13.99,0.5
					c-0.54-10.28,2.17-27.73-2-34.47c2,0,2,0,4,0c-0.32,6.97-0.91,54.73,0,57.46c1.85,5.56,11.95,3.42,16.99-4
					c6.33-9.31,7.09-43.25,6.99-55.46c7.49,0,7.49,0,14.99,0c-0.53,20.73,1.23,43.17,2.5,63.95c23.19-1.29,19.43-33.97,23.48-50.96
					c1.01-4.23,3.03-9.6,6-12.99c-0.86,20.18,2.64,41.17,1,61.45c22.3,11.55,20.14-25.66,21.98-39.47c4,0,4,0,7.99,0
					c0.27,15.72,3.6,38.99-10.99,47.46c33.98,0.8,33.99-46.36,33.97-71.45C690.89,195.08,697.94,197.93,710.81,200.57z"/>
				<g>
					<path class="st14" d="M709.31,279.52c5.39-1.01,13.26,3.48,9.49,9.49c-72.42,83.32-148.08,163.81-220.84,246.82
						c-45.57,51.99-108.11,131.62-151.89,177.87c-2.65,2.8-18.12,20.11-19.49,20.48c-7.61,2.12-14.11-5.91-7.49-12.49
						c53.27-62.05,104.37-126.01,157.88-187.86c52.13-60.25,133.35-152.19,186.86-208.84C669.34,319.16,706.15,280.11,709.31,279.52
						z"/>
					<path class="st14" d="M691.32,396.43c0.39,0,5.47,5.11,5.5,5.5c0.02,0.36-1.96,2.64-4,6c-6.16,10.15-56.91,71.31-69.95,86.94
						c-76.94,92.21-158.09,181.09-237.32,271.3c-17.79-1.31-0.12-18.29,15.49-37.47c37-45.47,79.33-86.79,117.91-130.9
						C605.14,497.1,605.14,497.1,691.32,396.43z"/>
					<path class="st11" d="M556.42,328.48c6.29,2.24,9.38,5.31,4.5,10.49c-42.49,51.55-88.63,100.06-131.9,150.89
						c-19.46,22.86-87.98,110.57-97.93,119.91c-11.24,10.56-15.91,3.64-12.99-3C395.45,512.14,476.21,420.67,556.42,328.48z"/>
					<path class="st14" d="M679.33,516.34c6.44-1.11,9.8,3.97,4.5,12.49c-4.87,7.81-106.32,122.87-120.91,138.9
						c-9.5,10.44-75.09,82.12-80.44,84.44c-6.04,2.62-10.11-3.47-9.49-6.5c1.39-6.79,85.57-86.71,94.93-100.92
						C582.58,631.37,670.96,517.79,679.33,516.34z"/>
					<path class="st11" d="M469.49,327.48c3.25,3.25,3.25,3.25,6.5,6.5c-32.24,39.51-139.9,170.17-171.37,193.36
						c-11.6,8.55-14.75,2.89-13.49-2.5c1.24-5.3,54.76-54.59,75.94-77.94C402.27,408.08,434.25,366.29,469.49,327.48z"/>
					<path class="st11" d="M388.55,323.48c0.87-0.09,7.49,5.03,7.49,5.5c0.02,2.74-29.71,37.73-33.97,42.97
						c-6.81,8.37-57.17,66.76-61.45,68.45c-5.06,2-10.17-4.18-9.49-7.49c0.66-3.22,39.22-41.39,44.97-47.96
						C342.72,377.35,384.53,323.9,388.55,323.48z"/>
					<path class="st14" d="M591.9,732.18c-13.2,9.74-31.64,26.22-46.97,30.48c13.64-13.29,33.6-26.16,46.97-38.47
						C595.47,732.21,587.18,731.6,591.9,732.18z"/>
				</g>
			</g>
		</g>
		<g>
			<path class="st15" d="M737.79,696.21c-7.64,8.37-9.63,20.7-14.99,30.48c-29.98,54.7-75.66,66.24-134.9,57.46
				c46.55-11.86,102.58-68.94,122.91-111.92c2-4.23,5.53-11.06,6.99-14.99c5.61,3.84,3.26-1.36,5-5c6.65,2.46,6.5-3.32,7.99-12.99
				c2.03-13.15-1.5-4.53,6.99-14.99C738.84,648.55,738.26,671.94,737.79,696.21z"/>
			<path class="st16" d="M737.79,624.26c-8.5,10.46-4.97,1.84-6.99,14.99c-3.58,3.66-5.83,8.46-7.99,12.99c-1.74,3.64,0.61,8.84-5,5
				c10.67-28.62,13.34-54.83,14.99-84.94c0.67-0.01,1.82-0.24,2,0.5C735.39,575.3,737.41,615.44,737.79,624.26z"/>
			<path class="st16" d="M722.8,652.24c2.16-4.53,4.42-9.33,7.99-12.99C729.3,648.92,729.44,654.7,722.8,652.24z"/>
		</g>
	</g>
</g>
</svg>
